<mxfile host="app.diagrams.net" modified="2021-10-22T10:25:23.744Z" agent="5.0 (Macintosh; Intel Mac OS X 10_15_7) AppleWebKit/605.1.15 (KHTML, like Gecko) Version/15.0 Safari/605.1.15" etag="5QoTjLd-VgBkODqFEAmp" version="15.5.3" type="github">
  <diagram id="zpcQQFXpKKOXDBpBT5Iq" name="Page-1">
    <mxGraphModel dx="2037" dy="1216" grid="1" gridSize="10" guides="1" tooltips="1" connect="1" arrows="1" fold="1" page="1" pageScale="1" pageWidth="827" pageHeight="1169" math="0" shadow="0">
      <root>
        <mxCell id="0" />
        <mxCell id="1" parent="0" />
        <mxCell id="c7Za7BFch5kh-YGNbLE7-2" value="" style="group" parent="1" vertex="1" connectable="0">
          <mxGeometry x="180" y="420" width="460" height="300.00000000000006" as="geometry" />
        </mxCell>
        <mxCell id="c7Za7BFch5kh-YGNbLE7-3" value="Responsibilities" style="swimlane;align=left;" parent="c7Za7BFch5kh-YGNbLE7-2" vertex="1">
          <mxGeometry y="-100" width="460" height="160" as="geometry" />
        </mxCell>
        <mxCell id="c7Za7BFch5kh-YGNbLE7-27" value="&lt;div&gt;- Store score&lt;/div&gt;&lt;div&gt;&lt;br&gt;&lt;/div&gt;&lt;div&gt;- Store max level&lt;/div&gt;&lt;div&gt;&lt;br&gt;&lt;/div&gt;&lt;div&gt;- Store player name&lt;/div&gt;&lt;div&gt;&lt;br&gt;&lt;/div&gt;&lt;div&gt;- Display all information in presentable&lt;/div&gt;&lt;div&gt;&amp;nbsp; format&lt;/div&gt;" style="text;html=1;strokeColor=none;fillColor=none;align=left;verticalAlign=top;whiteSpace=wrap;rounded=0;labelPosition=center;verticalLabelPosition=middle;" parent="c7Za7BFch5kh-YGNbLE7-3" vertex="1">
          <mxGeometry x="10" y="20" width="220" height="130" as="geometry" />
        </mxCell>
        <mxCell id="c7Za7BFch5kh-YGNbLE7-28" value="&lt;div&gt;- Game&lt;/div&gt;&lt;div&gt;&lt;br&gt;&lt;/div&gt;&lt;div&gt;- HighScoreBoard&lt;/div&gt;" style="text;html=1;strokeColor=none;fillColor=none;align=left;verticalAlign=top;whiteSpace=wrap;rounded=0;" parent="c7Za7BFch5kh-YGNbLE7-3" vertex="1">
          <mxGeometry x="240" y="20" width="220" height="140" as="geometry" />
        </mxCell>
        <mxCell id="c7Za7BFch5kh-YGNbLE7-4" value="Collaborations" style="swimlane;align=left;" parent="c7Za7BFch5kh-YGNbLE7-2" vertex="1">
          <mxGeometry x="230" y="-100" width="230" height="160" as="geometry" />
        </mxCell>
        <mxCell id="c7Za7BFch5kh-YGNbLE7-5" value="&lt;b&gt;Class: Player&lt;/b&gt;" style="verticalLabelPosition=middle;verticalAlign=middle;html=1;shape=mxgraph.basic.corner_round_rect;dx=6;labelPosition=center;align=left;" parent="c7Za7BFch5kh-YGNbLE7-2" vertex="1">
          <mxGeometry y="-130" width="460" height="30" as="geometry" />
        </mxCell>
        <mxCell id="c7Za7BFch5kh-YGNbLE7-11" value="Responsibilities" style="swimlane;align=left;" parent="c7Za7BFch5kh-YGNbLE7-2" vertex="1">
          <mxGeometry y="120" width="230" height="140" as="geometry" />
        </mxCell>
        <mxCell id="c7Za7BFch5kh-YGNbLE7-12" value="Collaborations" style="swimlane;align=left;" parent="c7Za7BFch5kh-YGNbLE7-2" vertex="1">
          <mxGeometry x="230" y="120" width="230" height="140" as="geometry" />
        </mxCell>
        <mxCell id="c7Za7BFch5kh-YGNbLE7-23" value="- Track score, time elapsed, rats still on the board, etc&lt;br&gt;&lt;br&gt;- Save state to file for loading&lt;br&gt;&lt;br&gt;- Track quantity of items in inventory" style="text;html=1;strokeColor=none;fillColor=none;align=left;verticalAlign=top;whiteSpace=wrap;rounded=0;labelPosition=center;verticalLabelPosition=middle;" parent="c7Za7BFch5kh-YGNbLE7-12" vertex="1">
          <mxGeometry x="-220" y="20" width="220" height="110" as="geometry" />
        </mxCell>
        <mxCell id="c7Za7BFch5kh-YGNbLE7-24" value="- RatManager&lt;br&gt;&amp;nbsp;&lt;br&gt;- Board&lt;br&gt;&lt;br&gt;- Player" style="text;html=1;strokeColor=none;fillColor=none;align=left;verticalAlign=top;whiteSpace=wrap;rounded=0;" parent="c7Za7BFch5kh-YGNbLE7-12" vertex="1">
          <mxGeometry x="10" y="20" width="220" height="100" as="geometry" />
        </mxCell>
        <mxCell id="c7Za7BFch5kh-YGNbLE7-13" value="&lt;b&gt;Class: Game&lt;/b&gt;" style="verticalLabelPosition=middle;verticalAlign=middle;html=1;shape=mxgraph.basic.corner_round_rect;dx=6;labelPosition=center;align=left;" parent="c7Za7BFch5kh-YGNbLE7-2" vertex="1">
          <mxGeometry y="90" width="460" height="30" as="geometry" />
        </mxCell>
        <mxCell id="c7Za7BFch5kh-YGNbLE7-6" value="" style="group" parent="1" vertex="1" connectable="0">
          <mxGeometry x="40" y="780" width="490" height="300.00000000000006" as="geometry" />
        </mxCell>
        <mxCell id="c7Za7BFch5kh-YGNbLE7-7" value="Responsibilities" style="swimlane;align=left;" parent="c7Za7BFch5kh-YGNbLE7-6" vertex="1">
          <mxGeometry x="140" y="160" width="460" height="100" as="geometry" />
        </mxCell>
        <mxCell id="c7Za7BFch5kh-YGNbLE7-31" value="- Tracks whether occupied by anything&lt;br&gt;&lt;br&gt;- Either passable or impassable&lt;br&gt;&amp;nbsp; depending on type" style="text;html=1;strokeColor=none;fillColor=none;align=left;verticalAlign=top;whiteSpace=wrap;rounded=0;labelPosition=center;verticalLabelPosition=middle;" parent="c7Za7BFch5kh-YGNbLE7-7" vertex="1">
          <mxGeometry x="10" y="20" width="220" height="80" as="geometry" />
        </mxCell>
        <mxCell id="c7Za7BFch5kh-YGNbLE7-32" value="&lt;div&gt;&amp;nbsp;- GameObject&lt;/div&gt;&lt;div&gt;&amp;nbsp;&lt;/div&gt;&lt;div&gt;&amp;nbsp;- Board&lt;/div&gt;" style="text;html=1;strokeColor=none;fillColor=none;align=left;verticalAlign=top;whiteSpace=wrap;rounded=0;" parent="c7Za7BFch5kh-YGNbLE7-7" vertex="1">
          <mxGeometry x="240" y="20" width="220" height="80" as="geometry" />
        </mxCell>
        <mxCell id="c7Za7BFch5kh-YGNbLE7-8" value="Collaborations" style="swimlane;align=left;" parent="c7Za7BFch5kh-YGNbLE7-6" vertex="1">
          <mxGeometry x="370" y="160" width="230" height="100" as="geometry" />
        </mxCell>
        <mxCell id="c7Za7BFch5kh-YGNbLE7-9" value="&lt;b&gt;Class: Tile&lt;/b&gt;&lt;span style=&quot;color: rgba(0 , 0 , 0 , 0) ; font-family: monospace ; font-size: 0px&quot;&gt;%3CmxGraphModel%3E%3Croot%3E%3CmxCell%20id%3D%220%22%2F%3E%3CmxCell%20id%3D%221%22%20parent%3D%220%22%2F%3E%3CmxCell%20id%3D%222%22%20value%3D%22%22%20style%3D%22group%22%20vertex%3D%221%22%20connectable%3D%220%22%20parent%3D%221%22%3E%3CmxGeometry%20x%3D%2270%22%20y%3D%2260%22%20width%3D%22460%22%20height%3D%22300%22%20as%3D%22geometry%22%2F%3E%3C%2FmxCell%3E%3CmxCell%20id%3D%223%22%20value%3D%22Responsibilities%22%20style%3D%22swimlane%3Balign%3Dleft%3B%22%20vertex%3D%221%22%20parent%3D%222%22%3E%3CmxGeometry%20y%3D%2230%22%20width%3D%22230%22%20height%3D%22270.00000000000006%22%20as%3D%22geometry%22%2F%3E%3C%2FmxCell%3E%3CmxCell%20id%3D%224%22%20value%3D%22Collaborations%22%20style%3D%22swimlane%3Balign%3Dleft%3B%22%20vertex%3D%221%22%20parent%3D%222%22%3E%3CmxGeometry%20x%3D%22230%22%20y%3D%2230%22%20width%3D%22230%22%20height%3D%22270.00000000000006%22%20as%3D%22geometry%22%2F%3E%3C%2FmxCell%3E%3CmxCell%20id%3D%225%22%20value%3D%22%26lt%3Bb%26gt%3BClass%3A%26lt%3B%2Fb%26gt%3B%22%20style%3D%22verticalLabelPosition%3Dmiddle%3BverticalAlign%3Dmiddle%3Bhtml%3D1%3Bshape%3Dmxgraph.basic.corner_round_rect%3Bdx%3D6%3BlabelPosition%3Dcenter%3Balign%3Dleft%3B%22%20vertex%3D%221%22%20parent%3D%222%22%3E%3CmxGeometry%20width%3D%22460%22%20height%3D%2230%22%20as%3D%22geometry%22%2F%3E%3C%2FmxCell%3E%3C%2Froot%3E%3C%2FmxGraphModel%3E&lt;/span&gt;" style="verticalLabelPosition=middle;verticalAlign=middle;html=1;shape=mxgraph.basic.corner_round_rect;dx=6;labelPosition=center;align=left;" parent="c7Za7BFch5kh-YGNbLE7-6" vertex="1">
          <mxGeometry x="140" y="130" width="460" height="30" as="geometry" />
        </mxCell>
        <mxCell id="c7Za7BFch5kh-YGNbLE7-15" value="Responsibilities" style="swimlane;align=left;" parent="c7Za7BFch5kh-YGNbLE7-6" vertex="1">
          <mxGeometry x="140" y="-40" width="460" height="140" as="geometry" />
        </mxCell>
        <mxCell id="c7Za7BFch5kh-YGNbLE7-29" value="- Tracking positions of objects&lt;br&gt;&lt;br&gt;- Handle the map made up of all the Tile&lt;br&gt;&amp;nbsp; objects" style="text;html=1;strokeColor=none;fillColor=none;align=left;verticalAlign=top;whiteSpace=wrap;rounded=0;labelPosition=center;verticalLabelPosition=middle;" parent="c7Za7BFch5kh-YGNbLE7-15" vertex="1">
          <mxGeometry x="10" y="20" width="220" height="120" as="geometry" />
        </mxCell>
        <mxCell id="c7Za7BFch5kh-YGNbLE7-30" value="- GameObject&lt;br&gt;&lt;br&gt;- Tile&lt;br&gt;&lt;br&gt;- SaveFile?" style="text;html=1;strokeColor=none;fillColor=none;align=left;verticalAlign=top;whiteSpace=wrap;rounded=0;" parent="c7Za7BFch5kh-YGNbLE7-15" vertex="1">
          <mxGeometry x="240" y="20" width="220" height="120" as="geometry" />
        </mxCell>
        <mxCell id="c7Za7BFch5kh-YGNbLE7-16" value="Collaborations" style="swimlane;align=left;" parent="c7Za7BFch5kh-YGNbLE7-6" vertex="1">
          <mxGeometry x="370" y="-40" width="230" height="140" as="geometry" />
        </mxCell>
        <mxCell id="c7Za7BFch5kh-YGNbLE7-17" value="&lt;b&gt;Class: Board&lt;/b&gt;" style="verticalLabelPosition=middle;verticalAlign=middle;html=1;shape=mxgraph.basic.corner_round_rect;dx=6;labelPosition=center;align=left;" parent="c7Za7BFch5kh-YGNbLE7-6" vertex="1">
          <mxGeometry x="140" y="-70" width="460" height="29.999999999999993" as="geometry" />
        </mxCell>
        <mxCell id="aV5-zZEt5HdxQ8EFgEAb-17" value="Responsibilities" style="swimlane;align=left;" parent="1" vertex="1">
          <mxGeometry x="180" y="100" width="230" height="160" as="geometry" />
        </mxCell>
        <mxCell id="c7Za7BFch5kh-YGNbLE7-19" value="- &amp;nbsp;Move around map, but only on certain&lt;br&gt;&amp;nbsp; &amp;nbsp;tiles&lt;br&gt;&lt;br&gt;- &amp;nbsp;Mate with other rats if fertile + correct&lt;br&gt;&amp;nbsp; &amp;nbsp;gender&lt;br&gt;&lt;br&gt;- &amp;nbsp;Interact with items that player deploys&lt;br&gt;&lt;br&gt;- &amp;nbsp;Track own hp, die if 0?" style="text;html=1;strokeColor=none;fillColor=none;align=left;verticalAlign=top;whiteSpace=wrap;rounded=0;labelPosition=center;verticalLabelPosition=middle;" parent="aV5-zZEt5HdxQ8EFgEAb-17" vertex="1">
          <mxGeometry x="10" y="20" width="220" height="130" as="geometry" />
        </mxCell>
        <mxCell id="aV5-zZEt5HdxQ8EFgEAb-18" value="Collaborations" style="swimlane;align=left;" parent="1" vertex="1">
          <mxGeometry x="410" y="100" width="230" height="160" as="geometry" />
        </mxCell>
        <mxCell id="c7Za7BFch5kh-YGNbLE7-22" value="- Tile&lt;br&gt;&lt;br&gt;- Rat&lt;br&gt;&lt;br&gt;- PowerItem" style="text;html=1;strokeColor=none;fillColor=none;align=left;verticalAlign=top;whiteSpace=wrap;rounded=0;" parent="aV5-zZEt5HdxQ8EFgEAb-18" vertex="1">
          <mxGeometry x="10" y="20" width="220" height="140" as="geometry" />
        </mxCell>
        <mxCell id="aV5-zZEt5HdxQ8EFgEAb-22" value="&lt;b&gt;Class: Rat&lt;/b&gt;" style="verticalLabelPosition=middle;verticalAlign=middle;html=1;shape=mxgraph.basic.corner_round_rect;dx=6;labelPosition=center;align=left;" parent="1" vertex="1">
          <mxGeometry x="180" y="70" width="460" height="30" as="geometry" />
        </mxCell>
      </root>
    </mxGraphModel>
  </diagram>
</mxfile>
